<?xml version="1.0" encoding="UTF-8"?>
<svg xmlns="http://www.w3.org/2000/svg" xmlns:xlink="http://www.w3.org/1999/xlink" width="12px" height="17px" viewBox="0 0 12 17" version="1.1">
<g id="surface1">
<path style=" stroke:none;fill-rule:nonzero;fill:rgb(0%,0%,0%);fill-opacity:1;" d="M 6.375 0.214844 C 3.167969 0.214844 0 2.488281 0 6.164062 C 0 8.5 1.238281 9.828125 1.988281 9.828125 C 2.296875 9.828125 2.476562 8.910156 2.476562 8.652344 C 2.476562 8.34375 1.734375 7.6875 1.734375 6.402344 C 1.734375 3.730469 3.648438 1.839844 6.121094 1.839844 C 8.25 1.839844 9.824219 3.125 9.824219 5.484375 C 9.824219 7.25 9.160156 10.554688 7.003906 10.554688 C 6.226562 10.554688 5.558594 9.957031 5.558594 9.101562 C 5.558594 7.847656 6.382812 6.628906 6.382812 5.335938 C 6.382812 3.136719 3.449219 3.535156 3.449219 6.191406 C 3.449219 6.75 3.515625 7.367188 3.75 7.875 C 3.320312 9.847656 2.4375 12.785156 2.4375 14.820312 C 2.4375 15.445312 2.523438 16.0625 2.578125 16.691406 C 2.683594 16.816406 2.632812 16.804688 2.792969 16.742188 C 4.367188 14.449219 4.3125 14 5.023438 11.003906 C 5.410156 11.78125 6.402344 12.199219 7.191406 12.199219 C 10.507812 12.199219 12 8.761719 12 5.664062 C 12 2.367188 9.320312 0.214844 6.375 0.214844 Z M 6.375 0.214844 "/>
</g>
</svg>
